# xmcd
#
# Track frame offsets: 
#        182
#        22037
#        37662
#        66747
#        81785
#        105887
#        126765
#        152270
#        169230
#        187980
#
# Disc length: 2728 seconds
#
# Revision: 2
# Processed by: cddbd v1.5.2PL0 Copyright (c) Steve Scherf et al.
# Submitted via: ExactAudioCopy v0.99pb5
#
DISCID=720aa60a
DTITLE=Various Artist - Skin Tight Volume 2
DYEAR=1992
DGENRE=R&B
TTITLE0=Express-B.T. Express
TTITLE1=Brick House - Commodores
TTITLE2=Glide - Pleasure
TTITLE3=What's The Name Of This Funk-Ramsey Lewis
TTITLE4=Fight The Power - Isley Brothers
TTITLE5=Hollywood Swingers - Kool and The Gang
TTITLE6=BOOTZILLA - BOOTSY COLLINS
TTITLE7=Got To Be Real - Cheryl Lynn
TTITLE8=FFUN - Con Funk Shun
TTITLE9=Do You Wanna Get Funky With Me - Peter Brown
EXTD=
EXTT0=
EXTT1=
EXTT2=
EXTT3=
EXTT4=
EXTT5=
EXTT6=
EXTT7=
EXTT8=
EXTT9=
PLAYORDER=
